<svg xmlns="http://www.w3.org/2000/svg" viewBox="0 0 512 512">
  <rect width="512" height="512" rx="96" fill="#4d7d68"/>
  <g transform="translate(96 116)" fill="none" stroke="#fffdf8" stroke-width="14" stroke-linecap="round" stroke-linejoin="round">
    <path d="M16 254 Q16 240 30 240 L156 240 Q160 240 160 244 L160 50 Q160 36 146 36 L30 36 Q16 36 16 50 Z" fill="#fffdf8" fill-opacity="0.08"/>
    <path d="M304 254 Q304 240 290 240 L164 240 Q160 240 160 244 L160 50 Q160 36 174 36 L290 36 Q304 36 304 50 Z" fill="#fffdf8" fill-opacity="0.08"/>
    <line x1="40" y1="80" x2="130" y2="80"/>
    <line x1="40" y1="110" x2="130" y2="110"/>
    <line x1="40" y1="140" x2="115" y2="140"/>
    <line x1="40" y1="170" x2="130" y2="170"/>
    <line x1="190" y1="80" x2="280" y2="80"/>
    <line x1="190" y1="110" x2="280" y2="110"/>
    <line x1="190" y1="140" x2="265" y2="140"/>
    <line x1="190" y1="170" x2="280" y2="170"/>
  </g>
  <circle cx="160" cy="380" r="12" fill="#c89a54"/>
  <text x="256" y="395" text-anchor="middle" font-family="Georgia, serif" font-size="48" font-weight="700" font-style="italic" fill="#fffdf8">Manual</text>
</svg>
